<?xml version="1.0" encoding="utf-8" ?><svg xmlns="http://www.w3.org/2000/svg" xmlns:xlink="http://www.w3.org/1999/xlink" width="20" height="20" viewBox="0 0 20 20"><circle fill="none" stroke="#E8722A" stroke-width="1.7" transform="matrix(1 0 0 1 4.2 4.2)" cx="5.8" cy="5.8" r="5.8"/><circle fill="none" stroke="#E8722A" stroke-width="1.7" transform="matrix(1 0 0 1 7.8 7.8)" cx="2.2" cy="2.2" r="2.2"/><path fill="#E8722A" transform="matrix(1 0 0 1 1.6 1.6)" d="M9.35 0L9.35 2.2Q9.3615 2.5983 9.0718 2.8718Q8.7983 3.1615 8.4 3.15Q8.0017 3.1615 7.7282 2.8718Q7.4385 2.5983 7.45 2.2L7.45 0Q7.4385 -0.3983 7.7282 -0.6718Q8.0017 -0.9615 8.4 -0.95Q8.7983 -0.9615 9.0717 -0.6718Q9.3615 -0.3983 9.35 0ZM3.1718 1.8282L4.7718 3.4282Q5.0615 3.7017 5.05 4.1Q5.0615 4.4983 4.7718 4.7718Q4.4983 5.0615 4.1 5.05Q3.7017 5.0615 3.4282 4.7718L1.8282 3.1718Q1.5385 2.8983 1.55 2.5Q1.5385 2.1017 1.8282 1.8282Q2.1017 1.5385 2.5 1.55Q2.8983 1.5385 3.1718 1.8282ZM14.9718 3.1718L13.3718 4.7718Q13.0983 5.0615 12.7 5.05Q12.3017 5.0615 12.0282 4.7718Q11.7385 4.4983 11.75 4.1Q11.7385 3.7017 12.0282 3.4282L13.6282 1.8282Q13.9017 1.5385 14.3 1.55Q14.6982 1.5385 14.9718 1.8282Q15.2615 2.1017 15.25 2.5Q15.2615 2.8983 14.9718 3.1718ZM0 7.45L2.2 7.45Q2.5983 7.4385 2.8718 7.7282Q3.1615 8.0017 3.15 8.4Q3.1615 8.7983 2.8718 9.0717Q2.5983 9.3615 2.2 9.35L0 9.35Q-0.3983 9.3615 -0.6718 9.0718Q-0.9615 8.7983 -0.95 8.4Q-0.9615 8.0017 -0.6718 7.7282Q-0.3983 7.4385 0 7.45ZM14.6 7.45L16.8 7.45Q17.1982 7.4385 17.4718 7.7282Q17.7615 8.0017 17.75 8.4Q17.7615 8.7983 17.4718 9.0717Q17.1982 9.3615 16.8 9.35L14.6 9.35Q14.2017 9.3615 13.9282 9.0718Q13.6385 8.7983 13.65 8.4Q13.6385 8.0017 13.9282 7.7282Q14.2017 7.4385 14.6 7.45ZM4.7718 13.3718L3.1718 14.9718Q2.8983 15.2615 2.5 15.25Q2.1017 15.2615 1.8282 14.9718Q1.5385 14.6982 1.55 14.3Q1.5385 13.9017 1.8282 13.6282L3.4282 12.0282Q3.7017 11.7385 4.1 11.75Q4.4983 11.7385 4.7718 12.0282Q5.0615 12.3017 5.05 12.7Q5.0615 13.0983 4.7718 13.3718ZM13.3718 12.0282L14.9718 13.6282Q15.2615 13.9017 15.25 14.3Q15.2615 14.6983 14.9718 14.9718Q14.6983 15.2615 14.3 15.25Q13.9017 15.2615 13.6282 14.9718L12.0282 13.3718Q11.7385 13.0983 11.75 12.7Q11.7385 12.3017 12.0282 12.0282Q12.3017 11.7385 12.7 11.75Q13.0983 11.7385 13.3718 12.0282ZM9.35 14.6L9.35 16.8Q9.3615 17.1982 9.0718 17.4718Q8.7983 17.7615 8.4 17.75Q8.0017 17.7615 7.7282 17.4718Q7.4385 17.1982 7.45 16.8L7.45 14.6Q7.4385 14.2017 7.7282 13.9282Q8.0017 13.6385 8.4 13.65Q8.7983 13.6385 9.0717 13.9282Q9.3615 14.2017 9.35 14.6Z" fill-rule="evenodd"/></svg>