<svg width="96" height="96" viewBox="0 0 96 96" xmlns="http://www.w3.org/2000/svg"><circle cx="48" cy="48" r="48" fill="#C6D9CE"/><ellipse cx="48" cy="47" rx="25" ry="24" fill="#6B4326"/><ellipse cx="48" cy="54" rx="20.5" ry="21" fill="#FBD1A6"/><ellipse cx="40" cy="37" rx="15" ry="12" fill="#6B4326"/><ellipse cx="63" cy="45" rx="10" ry="9" fill="#6B4326"/><ellipse cx="41" cy="52" rx="2.6" ry="3.3" fill="#3A2A1E"/><ellipse cx="55" cy="52" rx="2.6" ry="3.3" fill="#3A2A1E"/><circle cx="42" cy="50.8" r="1" fill="#FFFFFF"/><circle cx="56" cy="50.8" r="1" fill="#FFFFFF"/><ellipse cx="34" cy="59" rx="4.6" ry="2.9" fill="#FF8FB8" opacity="0.5"/><ellipse cx="62" cy="59" rx="4.6" ry="2.9" fill="#FF8FB8" opacity="0.5"/><path d="M44 62.5q4 3 8 0" fill="none" stroke="#C07A45" stroke-width="1.7" stroke-linecap="round"/><circle cx="41" cy="52" r="7.2" fill="none" stroke="#5A4632" stroke-width="2"/><circle cx="55" cy="52" r="7.2" fill="none" stroke="#5A4632" stroke-width="2"/><path d="M34 52h-6" stroke="#5A4632" stroke-width="2" stroke-linecap="round"/><path d="M62 52h6" stroke="#5A4632" stroke-width="2" stroke-linecap="round"/></svg>
