<svg width="96" height="96" viewBox="0 0 96 96" xmlns="http://www.w3.org/2000/svg" role="img" aria-label="爸爸 08 棒球帽">
  <title>爸爸 08 棒球帽</title>
  <defs><clipPath id="ring-dad-08"><circle cx="48" cy="48" r="47.0"/></clipPath></defs>
  <g clip-path="url(#ring-dad-08)">
  <circle cx="48" cy="48" r="47.0" fill="#EDF3DA"/>
  <path d="M40.5 60 L40.5 77 C40.5 80 55.5 80 55.5 77 L55.5 60 Z" fill="#FBD3B0" stroke="#3A3733" stroke-width="2.2" stroke-linejoin="round"/>
  <path d="M15 96 C15 81 28 72 41 72 L48 79 L55 72 C68 72 81 81 81 96 Z" fill="#4E8C8A" stroke="#3A3733" stroke-width="2.2" stroke-linejoin="round"/>
  <ellipse cx="24" cy="52" rx="3.6" ry="5.2" fill="#FBD3B0" stroke="#3A3733" stroke-width="2.2"/>
  <ellipse cx="72" cy="52" rx="3.6" ry="5.2" fill="#FBD3B0" stroke="#3A3733" stroke-width="2.2"/>
  <ellipse cx="48" cy="45" rx="22.5" ry="23" fill="#FBD3B0" stroke="#3A3733" stroke-width="2.2"/>
  <path d="M24.5 50 C24.5 29 34 18.5 48 18.5 C62 18.5 71.5 29 71.5 50 C71.5 50 70 30.5 64 28.5 C58 26.5 51 33 45 33 C39 33 34 26.8 29.5 28.8 C26.5 30.6 24.5 50 24.5 50 Z" fill="#3B2A22" stroke="#3A3733" stroke-width="2.2" stroke-linejoin="round"/>
  <path d="M21 33 C21 17 32 9.5 48 9.5 C64 9.5 75 17 75 33 C75 33 66 29 48 29 C30 29 21 33 21 33 Z" fill="#E8615A" stroke="#3A3733" stroke-width="2.2" stroke-linejoin="round"/>
  <path d="M18 30 C18 27 30 25 48 25 C66 25 78 27 78 30 C78 33 66 35 48 35 C30 35 18 33 18 30 Z" fill="#E8615A" stroke="#3A3733" stroke-width="2.2" stroke-linejoin="round"/>
  <circle cx="48" cy="11" r="2.6" fill="#E8615A" stroke="#3A3733" stroke-width="1.7"/>
  <path d="M42.5 55 C45 53 51 53 53.5 55 C51.5 57 44.5 57 42.5 55 Z" fill="#6B4C33" opacity="0.72"/>
  <path d="M35 37.5 C37.5 34.8 41 35 43 37.2" fill="none" stroke="#3A3733" stroke-width="2.1" stroke-linecap="round"/>
  <path d="M61 37.5 C58.5 34.8 55 35 53 37.2" fill="none" stroke="#3A3733" stroke-width="2.1" stroke-linecap="round"/>
  <path d="M48 50 C49.7 52.2 49.7 53.8 47.4 54.3" fill="none" stroke="#3A3733" stroke-width="1.8" stroke-linecap="round"/>
  <circle cx="39" cy="46" r="3.7" fill="#3A3733"/>
  <circle cx="57" cy="46" r="3.7" fill="#3A3733"/>
  <circle cx="40.2" cy="44.7" r="1.35" fill="#FFFFFF"/>
  <circle cx="58.2" cy="44.7" r="1.35" fill="#FFFFFF"/>
  <path d="M42 57.5 C44.6 61.5 51.4 61.5 54 57.5" fill="none" stroke="#3A3733" stroke-width="2.1" stroke-linecap="round"/>
  <ellipse cx="32" cy="51.5" rx="4.6" ry="2.8" fill="#FF9BB8" opacity="0.5"/>
  <ellipse cx="64" cy="51.5" rx="4.6" ry="2.8" fill="#FF9BB8" opacity="0.5"/>
  </g>
</svg>
