<svg width="96" height="96" viewBox="0 0 96 96" xmlns="http://www.w3.org/2000/svg"><circle cx="48" cy="48" r="48" fill="#FFE0EE"/><ellipse cx="21" cy="54" rx="8.5" ry="15" fill="#FF5E9E"/><ellipse cx="75" cy="54" rx="8.5" ry="15" fill="#FF5E9E"/><ellipse cx="48" cy="47" rx="25" ry="24" fill="#FF5E9E"/><ellipse cx="48" cy="54" rx="20.5" ry="21" fill="#FFE3C9"/><ellipse cx="41" cy="52" rx="2.6" ry="3.3" fill="#3A2A1E"/><ellipse cx="55" cy="52" rx="2.6" ry="3.3" fill="#3A2A1E"/><circle cx="42" cy="50.8" r="1" fill="#FFFFFF"/><circle cx="56" cy="50.8" r="1" fill="#FFFFFF"/><ellipse cx="34" cy="59" rx="4.6" ry="2.9" fill="#FF8FB8" opacity="0.5"/><ellipse cx="62" cy="59" rx="4.6" ry="2.9" fill="#FF8FB8" opacity="0.5"/><path d="M44 62.5q4 3 8 0" fill="none" stroke="#C07A45" stroke-width="1.7" stroke-linecap="round"/><path d="M33 25l-9-6v12z" fill="#FFC93C"/><path d="M41 25l9-6v12z" fill="#FFC93C"/><circle cx="37" cy="25" r="3.2" fill="#E8A400"/></svg>
