<svg width="96" height="96" viewBox="0 0 96 96" xmlns="http://www.w3.org/2000/svg" role="img" aria-label="妈妈 02 波波头">
  <title>妈妈 02 波波头</title>
  <defs><clipPath id="ring-mom-02"><circle cx="48" cy="48" r="47.0"/></clipPath></defs>
  <g clip-path="url(#ring-mom-02)">
  <circle cx="48" cy="48" r="47.0" fill="#FFF0C9"/>
  <path d="M40.5 60 L40.5 77 C40.5 80 55.5 80 55.5 77 L55.5 60 Z" fill="#FBD3B0" stroke="#3A3733" stroke-width="2.2" stroke-linejoin="round"/>
  <path d="M15 96 C15 81 28 72 41 72 L48 79 L55 72 C68 72 81 81 81 96 Z" fill="#4FC3A1" stroke="#3A3733" stroke-width="2.2" stroke-linejoin="round"/>
  <ellipse cx="24" cy="52" rx="3.6" ry="5.2" fill="#FBD3B0" stroke="#3A3733" stroke-width="2.2"/>
  <ellipse cx="72" cy="52" rx="3.6" ry="5.2" fill="#FBD3B0" stroke="#3A3733" stroke-width="2.2"/>
  <ellipse cx="48" cy="45" rx="22.5" ry="23" fill="#FBD3B0" stroke="#3A3733" stroke-width="2.2"/>
  <path d="M21 58 C21 30 31.5 17 48 17 C64.5 17 75 30 75 58 C75 63 72 65.5 69.5 63 L69.5 50 C69.5 34 60.5 30 48 30 C35.5 30 26.5 34 26.5 50 L26.5 63 C24 65.5 21 63 21 58 Z" fill="#2F2A28" stroke="#3A3733" stroke-width="2.2" stroke-linejoin="round"/>
  <circle cx="24.6" cy="59.6" r="1.9" fill="#FFC93C" stroke="#3A3733" stroke-width="1.5"/>
  <path d="M35 37.5 C37.5 34.8 41 35 43 37.2" fill="none" stroke="#3A3733" stroke-width="2.1" stroke-linecap="round"/>
  <path d="M61 37.5 C58.5 34.8 55 35 53 37.2" fill="none" stroke="#3A3733" stroke-width="2.1" stroke-linecap="round"/>
  <path d="M48 50 C49.7 52.2 49.7 53.8 47.4 54.3" fill="none" stroke="#3A3733" stroke-width="1.8" stroke-linecap="round"/>
  <circle cx="39" cy="46" r="3.7" fill="#3A3733"/>
  <circle cx="57" cy="46" r="3.7" fill="#3A3733"/>
  <circle cx="40.2" cy="44.7" r="1.35" fill="#FFFFFF"/>
  <circle cx="58.2" cy="44.7" r="1.35" fill="#FFFFFF"/>
  <path d="M42 57.5 C44.6 61.5 51.4 61.5 54 57.5" fill="none" stroke="#3A3733" stroke-width="2.1" stroke-linecap="round"/>
  <ellipse cx="32" cy="51.5" rx="4.6" ry="2.8" fill="#FF9BB8" opacity="0.5"/>
  <ellipse cx="64" cy="51.5" rx="4.6" ry="2.8" fill="#FF9BB8" opacity="0.5"/>
  </g>
</svg>
